<svg width="374" height="158" viewBox="0 0 374 158" fill="none" xmlns="http://www.w3.org/2000/svg">
<path d="M217.016 42.4844L216.945 46.9844C216.945 49.7812 217.203 51.6875 217.719 52.7031C218.031 53.3125 218.398 53.7812 218.82 54.1094L219.922 55H213.125L212.398 52.2812C210.633 54.4062 208.117 55.4688 204.852 55.4688C202.992 55.4688 201.492 54.8438 200.352 53.5938C199.352 52.4688 198.852 51.1406 198.852 49.6094C198.852 48.0781 199.211 46.7422 199.93 45.6016C200.664 44.4609 201.625 43.5156 202.812 42.7656C205.156 41.3125 208.102 40.5547 211.648 40.4922V40.2344C211.648 36.4375 211.062 34.2109 209.891 33.5547C209.469 33.3203 208.922 33.2031 208.25 33.2031C207.594 33.2031 206.937 33.4219 206.281 33.8594C205.625 34.2969 205.031 34.8594 204.5 35.5469C203.437 36.9375 202.68 38.5781 202.227 40.4688C200.836 39.6406 200.141 38.0547 200.141 35.7109C200.141 34.7578 200.266 33.6875 200.516 32.5C201.109 32.5 201.672 32.4141 202.203 32.2422L204.008 31.6797C205.773 31.1328 207.5 30.8594 209.187 30.8594C210.875 30.8594 212.219 31.1094 213.219 31.6094C214.234 32.1094 215.023 32.8516 215.586 33.8359C216.539 35.5078 217.016 38.3906 217.016 42.4844ZM203.914 50.0781C203.914 51.0469 204.133 51.7969 204.57 52.3281C205.023 52.8594 205.586 53.125 206.258 53.125C206.93 53.125 207.578 52.9531 208.203 52.6094C208.828 52.25 209.391 51.7656 209.891 51.1562C211.062 49.7656 211.648 48.1328 211.648 46.2578V42.7891C209.461 42.9922 207.656 43.7188 206.234 44.9688C204.687 46.3125 203.914 48.0156 203.914 50.0781ZM227.05 44.2656C227.05 49.3281 227.354 52.9062 227.964 55H221.05C221.487 53.4844 221.761 51.6953 221.87 49.6328C222.104 44.6484 222.222 40.7812 222.222 38.0312C222.222 35.2812 222.214 33.4375 222.198 32.5C222.182 31.5469 222.167 30.5938 222.151 29.6406C222.057 26.25 221.893 24.1172 221.659 23.2422C221.44 22.3516 221.229 21.7109 221.026 21.3203C220.839 20.9141 220.62 20.5469 220.37 20.2188L219.597 19.1406H228.151C227.714 20.7188 227.456 22.2344 227.378 23.6875C227.315 25.125 227.261 26.3984 227.214 27.5078C227.182 28.6172 227.151 29.7734 227.12 30.9766C227.089 32.9766 227.073 35.3594 227.073 38.125L227.05 44.2656ZM248.287 42.4844L248.217 46.9844C248.217 49.7812 248.474 51.6875 248.99 52.7031C249.302 53.3125 249.67 53.7812 250.092 54.1094L251.193 55H244.396L243.67 52.2812C241.904 54.4062 239.388 55.4688 236.123 55.4688C234.263 55.4688 232.763 54.8438 231.623 53.5938C230.623 52.4688 230.123 51.1406 230.123 49.6094C230.123 48.0781 230.482 46.7422 231.201 45.6016C231.935 44.4609 232.896 43.5156 234.084 42.7656C236.427 41.3125 239.373 40.5547 242.92 40.4922V40.2344C242.92 36.4375 242.334 34.2109 241.162 33.5547C240.74 33.3203 240.193 33.2031 239.521 33.2031C238.865 33.2031 238.209 33.4219 237.552 33.8594C236.896 34.2969 236.302 34.8594 235.771 35.5469C234.709 36.9375 233.951 38.5781 233.498 40.4688C232.107 39.6406 231.412 38.0547 231.412 35.7109C231.412 34.7578 231.537 33.6875 231.787 32.5C232.381 32.5 232.943 32.4141 233.474 32.2422L235.279 31.6797C237.045 31.1328 238.771 30.8594 240.459 30.8594C242.146 30.8594 243.49 31.1094 244.49 31.6094C245.506 32.1094 246.295 32.8516 246.857 33.8359C247.81 35.5078 248.287 38.3906 248.287 42.4844ZM235.185 50.0781C235.185 51.0469 235.404 51.7969 235.842 52.3281C236.295 52.8594 236.857 53.125 237.529 53.125C238.201 53.125 238.849 52.9531 239.474 52.6094C240.099 52.25 240.662 51.7656 241.162 51.1562C242.334 49.7656 242.92 48.1328 242.92 46.2578V42.7891C240.732 42.9922 238.927 43.7188 237.506 44.9688C235.959 46.3125 235.185 48.0156 235.185 50.0781ZM267.087 29.9219C267.477 30.8594 267.672 31.8906 267.672 33.0156C267.672 34.125 267.633 35.0469 267.555 35.7812C267.477 36.5156 267.36 37.2266 267.204 37.9141C266.876 39.3672 266.368 40.5312 265.68 41.4062C264.993 37.1562 263.876 34.5781 262.329 33.6719C261.782 33.3594 261.188 33.2031 260.547 33.2031C259.922 33.2031 259.376 33.3516 258.907 33.6484C258.438 33.9453 258.04 34.375 257.712 34.9375C257.04 36.0625 256.704 37.5234 256.704 39.3203C256.704 41.1016 256.883 42.6406 257.243 43.9375C257.602 45.2188 258.071 46.375 258.649 47.4062C259.243 48.4219 259.907 49.3047 260.641 50.0547C261.391 50.7891 262.141 51.4062 262.891 51.9062C264.407 52.875 265.751 53.3594 266.922 53.3594C266.86 53.7656 266.657 54.1641 266.313 54.5547C265.969 54.9453 265.594 55.25 265.188 55.4688C263.532 55.4688 261.633 54.9062 259.493 53.7812C255.508 51.6719 252.821 48.5938 251.43 44.5469C250.915 43.0625 250.657 41.5469 250.657 40C250.657 38.4375 250.837 37.125 251.196 36.0625C251.555 34.9844 252.079 34.0625 252.766 33.2969C254.172 31.6719 256.126 30.8594 258.626 30.8594C259.469 30.8594 260.29 30.9141 261.087 31.0234C262.587 31.2266 263.633 31.3281 264.227 31.3281C264.837 31.3281 265.376 31.25 265.844 31.0938C266.313 30.9219 266.727 30.5312 267.087 29.9219ZM276.792 25.0234C276.48 25.5391 276.097 25.9766 275.644 26.3359C275.191 26.6797 274.675 26.8516 274.097 26.8516C273.519 26.8516 273.003 26.6797 272.55 26.3359C272.097 25.9766 271.714 25.5391 271.402 25.0234C270.761 23.9609 270.441 22.8359 270.441 21.6484C270.441 20.2109 271.097 19.25 272.41 18.7656C272.878 18.5938 273.449 18.5078 274.121 18.5078C275.98 18.5078 277.136 19.1641 277.589 20.4766C277.73 20.8516 277.8 21.2734 277.8 21.7422C277.8 22.1953 277.714 22.7266 277.542 23.3359C277.371 23.9453 277.121 24.5078 276.792 25.0234ZM270.441 55C271.16 52.5312 271.519 48.2891 271.519 42.2734C271.519 38.0391 271.144 35.125 270.394 33.5312C270.206 33.125 269.996 32.75 269.761 32.4062L268.988 31.3281H277.308C276.621 33.9062 276.277 37.8828 276.277 43.2578C276.277 48.6172 276.636 52.5312 277.355 55H270.441ZM290.834 33.2031C289.428 33.2031 288.412 33.9062 287.787 35.3125C287.178 36.7188 286.873 39.0859 286.873 42.4141C286.873 49.5547 288.194 53.125 290.834 53.125C292.241 53.125 293.248 52.1719 293.858 50.2656C294.483 48.3594 294.795 45.7422 294.795 42.4141C294.795 39.0859 294.483 36.7188 293.858 35.3125C293.248 33.9062 292.241 33.2031 290.834 33.2031ZM280.967 41.5234C280.967 34.4141 284.256 30.8594 290.834 30.8594C297.412 30.8594 300.701 34.4141 300.701 41.5234C300.701 45.8359 299.795 49.25 297.983 51.7656C296.217 54.2344 293.834 55.4688 290.834 55.4688C287.834 55.4688 285.451 54.2344 283.686 51.7656C281.873 49.25 280.967 45.8359 280.967 41.5234Z" fill="#64240F"/>
<path d="M308.076 69.6114C306.799 70.7715 305.176 71.3516 303.207 71.3516C301.402 71.3516 299.979 70.8301 298.936 69.7871C297.857 68.709 297.318 67.1914 297.318 65.2344C297.318 63.2657 297.605 61.5489 298.18 60.084C298.754 58.6075 299.51 57.3711 300.447 56.375C302.299 54.4063 304.572 53.3692 307.268 53.2637C307.174 49.6543 307.051 47.586 306.898 47.0586C306.758 46.5196 306.611 46.0977 306.459 45.793C306.318 45.4766 306.154 45.1895 305.967 44.9317L305.369 44.1055H311.785C311.457 45.2891 311.264 46.4375 311.205 47.5508C311.158 48.6641 311.123 49.6426 311.1 50.4864C311.076 51.3301 311.059 52.2149 311.047 53.1407C311.012 54.6875 310.994 56.2285 310.994 57.7637C310.994 59.2871 310.994 60.4414 310.994 61.2266C311.006 62.0117 311.023 62.7559 311.047 63.459C311.105 66.0957 311.205 67.666 311.346 68.17C311.486 68.6621 311.627 69.0606 311.768 69.3653C311.92 69.6582 312.09 69.9336 312.277 70.1914L312.875 71H308.322L308.076 69.6114ZM307.285 64.5489C307.344 62.7442 307.373 61.0567 307.373 59.4864C307.373 57.9043 307.355 56.3985 307.32 54.9688C305.621 55.2266 304.262 56.2285 303.242 57.9746C302.223 59.709 301.713 61.8946 301.713 64.5313C301.713 66.0899 301.83 67.1797 302.064 67.8008C302.311 68.4219 302.598 68.8789 302.926 69.1719C303.266 69.4532 303.67 69.5938 304.139 69.5938C304.619 69.5938 305.035 69.5 305.387 69.3125C305.75 69.1133 306.066 68.8262 306.336 68.4512C306.922 67.6543 307.238 66.3535 307.285 64.5489ZM325.938 65.0235C326.36 65.3047 326.57 65.7969 326.57 66.5C326.57 67.1914 326.477 67.8008 326.289 68.3282C326.102 68.8555 325.774 69.3477 325.305 69.8047C324.25 70.836 322.645 71.3516 320.488 71.3516C317.981 71.3516 316.07 70.4258 314.758 68.5742C313.598 66.9219 313.018 64.6895 313.018 61.877C313.018 59.041 313.803 56.8145 315.373 55.1973C316.861 53.6621 318.877 52.8946 321.42 52.8946C323.19 52.8946 324.572 53.4102 325.569 54.4414C326.354 55.2617 326.746 56.211 326.746 57.2891C326.746 58.3555 326.535 59.3223 326.113 60.1895C325.703 61.045 325.094 61.7832 324.285 62.4043C322.621 63.6934 320.295 64.3731 317.307 64.4434C317.553 66.7989 318.291 68.375 319.522 69.1719C319.967 69.4532 320.559 69.5938 321.297 69.5938C322.035 69.5938 322.82 69.2071 323.653 68.4336C324.485 67.6602 325.246 66.5235 325.938 65.0235ZM317.201 62.7735C320.904 62.5274 322.756 60.7344 322.756 57.3946C322.756 56.1407 322.381 55.2969 321.631 54.8633C321.373 54.7227 321.033 54.6524 320.611 54.6524C320.19 54.6524 319.762 54.7813 319.328 55.0391C318.906 55.2969 318.537 55.7188 318.221 56.3047C317.541 57.5821 317.201 59.5567 317.201 62.2285V62.7735Z" fill="#64240F"/>
<path d="M93.9688 19.0312C93.8854 22.0729 93.8438 25.2188 93.8438 28.4688C93.8438 32.9062 93.9166 37.6875 94.0624 42.8125C94.2082 47.9375 94.3124 50.8542 94.3749 51.5625C94.4582 52.25 94.5624 52.8542 94.6874 53.375C94.9166 54.3333 95.2916 55.2083 95.8124 56H87.0938C87.8853 54.875 88.3541 53.6667 88.4999 52.375C88.6666 51.0833 88.7916 49.8333 88.8749 48.625C89.0416 46.1667 89.1249 42.8646 89.1249 38.7188C89.1249 33.6979 89.0416 29.1146 88.8749 24.9688L88.5311 16.375C88.4061 13.2083 87.8957 10.9583 86.9999 9.625C86.6666 9.125 86.2395 8.64583 85.7188 8.1875H97.9374C98.7499 11.75 99.7603 15.5312 100.969 19.5312L106.656 37.6875L115.375 8.1875H127.562C126.542 9.08333 125.875 10 125.562 10.9375C125.104 12.375 124.844 14.0417 124.781 15.9375L124.562 21.4688C124.292 27.9479 124.156 33.6979 124.156 38.7188C124.156 47.1354 124.542 52.4792 125.312 54.75C125.458 55.1667 125.646 55.5833 125.875 56H116.031C116.594 54.8958 116.906 53.7083 116.969 52.4375C117.052 51.1458 117.125 49.375 117.188 47.125C117.438 39.7292 117.562 34.3438 117.562 30.9688C117.562 25.4062 117.51 21.2708 117.406 18.5625L105.906 56L99.8124 36.8125L93.9688 19.0312ZM134.427 26.0234C134.114 26.5391 133.732 26.9766 133.278 27.3359C132.825 27.6797 132.31 27.8516 131.732 27.8516C131.153 27.8516 130.638 27.6797 130.185 27.3359C129.732 26.9766 129.349 26.5391 129.036 26.0234C128.396 24.9609 128.075 23.8359 128.075 22.6484C128.075 21.2109 128.732 20.25 130.044 19.7656C130.513 19.5938 131.083 19.5078 131.755 19.5078C133.614 19.5078 134.771 20.1641 135.224 21.4766C135.364 21.8516 135.435 22.2734 135.435 22.7422C135.435 23.1953 135.349 23.7266 135.177 24.3359C135.005 24.9453 134.755 25.5078 134.427 26.0234ZM128.075 56C128.794 53.5312 129.153 49.2891 129.153 43.2734C129.153 39.0391 128.778 36.125 128.028 34.5312C127.841 34.125 127.63 33.75 127.396 33.4062L126.622 32.3281H134.943C134.255 34.9062 133.911 38.8828 133.911 44.2578C133.911 49.6172 134.271 53.5312 134.989 56H128.075Z" fill="#64240F"/>
<path d="M154.426 32.046L165.304 32.732C166.611 32.4707 168.048 32.2747 169.616 32.144C171.249 31.948 172.981 31.85 174.81 31.85C177.685 31.85 180.331 32.1113 182.748 32.634C185.231 33.1567 187.387 34.0387 189.216 35.28C191.045 36.456 192.45 38.0567 193.43 40.082C194.475 42.1073 194.998 44.59 194.998 47.53C194.998 51.9073 194.181 55.7293 192.548 58.996C190.98 62.2627 188.889 65.0067 186.276 67.228C183.728 69.384 180.821 71.0173 177.554 72.128C174.287 73.1733 170.955 73.696 167.558 73.696C166.643 73.696 165.761 73.696 164.912 73.696C164.063 73.696 163.181 73.6307 162.266 73.5L157.562 98H141.686L154.426 32.046ZM171.478 42.434C170.89 42.434 170.335 42.434 169.812 42.434C169.289 42.434 168.767 42.4993 168.244 42.63L164.52 62.034H166.382C169.975 62.034 172.85 60.8907 175.006 58.604C177.227 56.3173 178.338 53.312 178.338 49.588C178.338 46.9747 177.717 45.1453 176.476 44.1C175.235 42.9893 173.569 42.434 171.478 42.434Z" fill="#DF6207"/>
<path d="M35.6999 134.2C34.0199 134.853 32.2466 135.413 30.3799 135.88C28.7933 136.347 26.9733 136.72 24.9199 137C22.8666 137.373 20.7666 137.56 18.6199 137.56C13.3933 137.56 9.47329 136.347 6.85996 133.92C4.33996 131.493 3.07996 128.227 3.07996 124.12C3.07996 123.467 3.12663 122.767 3.21996 122.02C3.31329 121.273 3.45329 120.527 3.63996 119.78L19.4599 38.3L41.2999 35.5L26.1799 114.74C25.9933 115.953 25.8533 116.747 25.7599 117.12C25.6666 117.493 25.6199 117.913 25.6199 118.38C25.6199 119.033 25.7133 119.64 25.8999 120.2C26.1799 120.667 26.7866 120.9 27.7199 120.9C28.2799 120.9 28.9799 120.853 29.8199 120.76C30.6599 120.573 31.4999 120.387 32.3399 120.2C33.1799 119.92 33.8799 119.687 34.4399 119.5C35.0933 119.313 35.5133 119.22 35.6999 119.22V134.2Z" fill="#DF6207"/>
<path d="M62.2859 109.318C63.2659 109.318 64.3113 108.599 65.4219 107.162C66.5326 105.725 67.5779 103.895 68.5579 101.674C69.6033 99.4527 70.5506 97.0354 71.3999 94.422C72.2493 91.7434 72.9679 89.228 73.5559 86.876L74.5359 82.466C73.8173 82.2047 72.8373 82.074 71.5959 82.074C69.3093 82.074 67.4146 82.9234 65.9119 84.622C64.4746 86.2554 63.2986 88.248 62.3839 90.6C61.5346 92.952 60.9139 95.402 60.5219 97.95C60.1953 100.498 60.0319 102.621 60.0319 104.32C60.0319 105.692 60.1626 106.868 60.4239 107.848C60.7506 108.828 61.3713 109.318 62.2859 109.318ZM57.5819 120.882C55.0993 120.882 53.0086 120.392 51.3099 119.412C49.6113 118.367 48.2393 117.06 47.1939 115.492C46.1486 113.859 45.3646 112.062 44.8419 110.102C44.3846 108.077 44.1559 106.051 44.1559 104.026C44.1559 99.322 44.7439 94.9774 45.9199 90.992C47.1613 86.9414 48.9579 83.4134 51.3099 80.408C53.7273 77.4027 56.6673 75.0507 60.1299 73.352C63.6579 71.6534 67.7086 70.804 72.2819 70.804C74.4379 70.804 76.3653 71 78.0639 71.392C79.8279 71.7187 81.6246 72.3067 83.4539 73.156L91.2939 73.646L87.1779 95.01C86.8513 96.578 86.5899 98.0807 86.3939 99.518C86.2633 100.89 86.1979 102.164 86.1979 103.34C86.1979 106.084 86.5246 108.436 87.1779 110.396C87.8313 112.291 88.8113 114.251 90.1179 116.276L77.7699 121.176C76.7899 120.065 75.9406 118.726 75.2219 117.158C74.5686 115.525 74.2419 113.728 74.2419 111.768C74.2419 110.984 74.2419 110.102 74.2419 109.122C74.3073 108.142 74.4053 106.999 74.5359 105.692L73.2619 108.436C71.1713 112.944 68.7866 116.145 66.1079 118.04C63.4946 119.935 60.6526 120.882 57.5819 120.882ZM119.346 70.51C123.854 70.51 127.284 71.49 129.636 73.45C131.988 75.41 133.458 78.35 134.046 82.27L122.874 86.092C122.678 85.504 122.515 84.9487 122.384 84.426C122.254 83.838 122.058 83.3154 121.796 82.858C121.535 82.4007 121.176 82.0414 120.718 81.78C120.261 81.5187 119.64 81.388 118.856 81.388C117.55 81.388 116.668 81.8127 116.21 82.662C115.818 83.446 115.622 84.1974 115.622 84.916C115.622 86.1574 116.014 87.17 116.798 87.954C117.648 88.6727 118.432 89.2607 119.15 89.718L121.698 91.188C122.874 91.9067 123.985 92.6254 125.03 93.344C126.076 94.0627 126.99 94.9447 127.774 95.99C128.624 96.97 129.277 98.1787 129.734 99.616C130.257 101.053 130.518 102.817 130.518 104.908C130.518 107.129 130.094 109.22 129.244 111.18C128.395 113.14 127.121 114.871 125.422 116.374C123.789 117.877 121.731 119.085 119.248 120C116.766 120.849 113.891 121.274 110.624 121.274C108.468 121.274 106.312 120.98 104.156 120.392C102.066 119.804 100.171 119.151 98.4724 118.432C96.4471 117.648 94.5524 116.701 92.7884 115.59L98.8644 104.614C100.236 105.659 101.608 106.541 102.98 107.26C104.091 107.979 105.3 108.599 106.606 109.122C107.913 109.645 109.089 109.906 110.134 109.906C111.833 109.906 113.074 109.579 113.858 108.926C114.642 108.207 115.034 107.293 115.034 106.182C115.034 104.875 114.708 103.83 114.054 103.046C113.401 102.197 112.388 101.413 111.016 100.694L107.782 99.028C106.933 98.636 106.051 98.1134 105.136 97.46C104.287 96.8067 103.47 95.9574 102.686 94.912C101.968 93.8667 101.347 92.6254 100.824 91.188C100.367 89.6854 100.138 87.8887 100.138 85.798C100.138 83.5767 100.53 81.5514 101.314 79.722C102.164 77.8274 103.372 76.194 104.94 74.822C106.574 73.45 108.599 72.4047 111.016 71.686C113.434 70.902 116.21 70.51 119.346 70.51Z" fill="#DF6207"/>
<path d="M188.872 110.536C189.832 110.536 190.856 109.832 191.944 108.424C193.032 107.016 194.056 105.224 195.016 103.048C196.04 100.872 196.968 98.504 197.8 95.944C198.632 93.32 199.336 90.856 199.912 88.552L200.872 84.232C200.168 83.976 199.208 83.848 197.992 83.848C195.752 83.848 193.896 84.68 192.424 86.344C191.016 87.944 189.864 89.896 188.968 92.2C188.136 94.504 187.528 96.904 187.144 99.4C186.824 101.896 186.664 103.976 186.664 105.64C186.664 106.984 186.792 108.136 187.048 109.096C187.368 110.056 187.976 110.536 188.872 110.536ZM184.264 121.864C181.832 121.864 179.784 121.384 178.12 120.424C176.456 119.4 175.112 118.12 174.088 116.584C173.064 114.984 172.296 113.224 171.784 111.304C171.336 109.32 171.112 107.336 171.112 105.352C171.112 100.744 171.688 96.488 172.84 92.584C174.056 88.616 175.816 85.16 178.12 82.216C180.488 79.272 183.368 76.968 186.76 75.304C190.216 73.64 194.184 72.808 198.664 72.808C200.776 72.808 202.664 73 204.328 73.384C206.056 73.704 207.816 74.28 209.608 75.112L217.288 75.592L213.256 96.52C212.936 98.056 212.68 99.528 212.488 100.936C212.36 102.28 212.296 103.528 212.296 104.68C212.296 107.368 212.616 109.672 213.256 111.592C213.896 113.448 214.856 115.368 216.136 117.352L204.04 122.152C203.08 121.064 202.248 119.752 201.544 118.216C200.904 116.616 200.584 114.856 200.584 112.936C200.584 112.168 200.584 111.304 200.584 110.344C200.648 109.384 200.744 108.264 200.872 106.984L199.624 109.672C197.576 114.088 195.24 117.224 192.616 119.08C190.056 120.936 187.272 121.864 184.264 121.864Z" fill="#DF6207"/>
<path d="M288.872 120.536C289.832 120.536 290.856 119.832 291.944 118.424C293.032 117.016 294.056 115.224 295.016 113.048C296.04 110.872 296.968 108.504 297.8 105.944C298.632 103.32 299.336 100.856 299.912 98.552L300.872 94.232C300.168 93.976 299.208 93.848 297.992 93.848C295.752 93.848 293.896 94.68 292.424 96.344C291.016 97.944 289.864 99.896 288.968 102.2C288.136 104.504 287.528 106.904 287.144 109.4C286.824 111.896 286.664 113.976 286.664 115.64C286.664 116.984 286.792 118.136 287.048 119.096C287.368 120.056 287.976 120.536 288.872 120.536ZM284.264 131.864C281.832 131.864 279.784 131.384 278.12 130.424C276.456 129.4 275.112 128.12 274.088 126.584C273.064 124.984 272.296 123.224 271.784 121.304C271.336 119.32 271.112 117.336 271.112 115.352C271.112 110.744 271.688 106.488 272.84 102.584C274.056 98.616 275.816 95.16 278.12 92.216C280.488 89.272 283.368 86.968 286.76 85.304C290.216 83.64 294.184 82.808 298.664 82.808C300.776 82.808 302.664 83 304.328 83.384C306.056 83.704 307.816 84.28 309.608 85.112L317.288 85.592L313.256 106.52C312.936 108.056 312.68 109.528 312.488 110.936C312.36 112.28 312.296 113.528 312.296 114.68C312.296 117.368 312.616 119.672 313.256 121.592C313.896 123.448 314.856 125.368 316.136 127.352L304.04 132.152C303.08 131.064 302.248 129.752 301.544 128.216C300.904 126.616 300.584 124.856 300.584 122.936C300.584 122.168 300.584 121.304 300.584 120.344C300.648 119.384 300.744 118.264 300.872 116.984L299.624 119.672C297.576 124.088 295.24 127.224 292.616 129.08C290.056 130.936 287.272 131.864 284.264 131.864Z" fill="#DF6207"/>
<path d="M227.584 94.424C227.904 92.824 228.128 91.352 228.256 90.008C228.448 88.6 228.544 87.32 228.544 86.168C228.544 83.16 228.128 80.76 227.296 78.968C226.528 77.176 225.952 75.96 225.568 75.32L237.664 70.616C238.56 71.64 239.232 72.856 239.68 74.264C240.128 75.608 240.352 77.048 240.352 78.584C240.352 79.288 240.32 80.152 240.256 81.176C240.192 82.136 240 83.576 239.68 85.496L240.928 82.808C242.976 78.328 245.28 75.224 247.84 73.496C250.464 71.704 253.28 70.808 256.288 70.808C258.656 70.808 260.672 71.32 262.336 72.344C264.064 73.304 265.44 74.584 266.464 76.184C267.488 77.72 268.224 79.48 268.672 81.464C269.184 83.448 269.44 85.4 269.44 87.32C269.44 91.928 268.832 96.216 267.616 100.184C266.464 104.088 264.704 107.512 262.336 110.456C260.032 113.4 257.152 115.704 253.696 117.368C250.304 119.032 246.368 119.864 241.888 119.864C241.056 119.864 240.256 119.832 239.488 119.768C238.784 119.704 238.08 119.608 237.376 119.48L233.728 138.392L218.752 140.312L227.584 94.424ZM239.584 108.44C240.416 108.696 241.408 108.824 242.56 108.824C244.736 108.824 246.56 108.024 248.032 106.424C249.504 104.76 250.656 102.776 251.488 100.472C252.384 98.168 252.992 95.768 253.312 93.272C253.696 90.776 253.888 88.696 253.888 87.032C253.888 85.688 253.728 84.536 253.408 83.576C253.152 82.616 252.576 82.136 251.68 82.136C250.72 82.136 249.696 82.808 248.608 84.152C247.584 85.496 246.56 87.256 245.536 89.432C244.512 91.608 243.552 94.104 242.656 96.92C241.76 99.672 240.992 102.456 240.352 105.272L239.584 108.44Z" fill="#DF6207"/>
<path d="M353.28 53.624C356.416 53.624 359.04 53.976 361.152 54.68C363.264 55.384 364.992 56.344 366.336 57.56C367.68 58.712 368.736 60.056 369.504 61.592C370.272 63.064 370.912 64.6 371.424 66.2L359.328 71.768C358.624 69.72 357.856 68.184 357.024 67.16C356.256 66.072 355.008 65.528 353.28 65.528C351.424 65.528 349.952 66.072 348.864 67.16C347.776 68.184 347.232 69.432 347.232 70.904C347.232 72.76 347.648 74.168 348.48 75.128C349.312 76.088 350.4 77.048 351.744 78.008L360.192 84.248C362.688 86.104 364.64 88.312 366.048 90.872C367.52 93.432 368.256 96.504 368.256 100.088C368.256 103.48 367.552 106.456 366.144 109.016C364.8 111.512 362.944 113.592 360.576 115.256C358.272 116.92 355.616 118.168 352.608 119C349.6 119.832 346.464 120.248 343.2 120.248C338.528 120.248 334.464 119.736 331.008 118.712C327.552 117.624 324.48 116.344 321.792 114.872L328.512 102.968C330.88 104.376 333.248 105.624 335.616 106.712C337.984 107.736 340.416 108.248 342.912 108.248C345.536 108.248 347.616 107.704 349.152 106.616C350.752 105.464 351.552 103.704 351.552 101.336C351.552 99.48 351.104 97.976 350.208 96.824C349.312 95.608 348.128 94.456 346.656 93.368L339.84 88.376C338.304 87.224 336.96 86.072 335.808 84.92C334.656 83.768 333.696 82.52 332.928 81.176C332.16 79.832 331.552 78.36 331.104 76.76C330.72 75.16 330.528 73.368 330.528 71.384C330.528 68.568 331.104 66.072 332.256 63.896C333.408 61.656 335.008 59.8 337.056 58.328C339.104 56.792 341.504 55.64 344.256 54.872C347.008 54.04 350.016 53.624 353.28 53.624Z" fill="#DF6207"/>
</svg>
